<?xml version="1.0" standalone="no"?>
<!DOCTYPE svg PUBLIC "-//W3C//DTD SVG 20010904//EN"
 "http://www.w3.org/TR/2001/REC-SVG-20010904/DTD/svg10.dtd">
<svg version="1.0" xmlns="http://www.w3.org/2000/svg"
 width="512.000000pt" height="512.000000pt" viewBox="0 0 512.000000 512.000000"
 preserveAspectRatio="xMidYMid meet">

<g transform="translate(0.000000,512.000000) scale(0.100000,-0.100000)"
fill="#000000" stroke="none">
<path d="M1940 4684 c-185 -23 -399 -87 -564 -170 -478 -240 -802 -662 -918
-1196 -19 -89 -22 -134 -23 -323 0 -190 3 -235 23 -332 177 -876 977 -1466
1860 -1373 274 29 589 149 800 304 l59 44 469 -470 c258 -258 487 -480 509
-493 87 -50 178 -40 252 28 76 70 91 172 38 262 -13 22 -235 251 -493 509
l-470 469 44 60 c62 84 145 236 187 342 77 195 114 364 124 570 38 836 -546
1579 -1374 1746 -84 17 -151 22 -298 24 -104 2 -206 1 -225 -1z m423 -439
c258 -45 497 -174 689 -373 187 -193 299 -416 343 -681 23 -137 16 -367 -15
-491 -105 -422 -389 -750 -782 -906 -193 -76 -460 -104 -669 -69 -439 73 -811
368 -979 776 -232 560 -29 1218 480 1553 277 183 601 249 933 191z"/>
</g>
</svg>
