<?xml version="1.0" standalone="no"?>
<!DOCTYPE svg PUBLIC "-//W3C//DTD SVG 20010904//EN"
 "http://www.w3.org/TR/2001/REC-SVG-20010904/DTD/svg10.dtd">
<svg version="1.0" xmlns="http://www.w3.org/2000/svg"
 width="512.000000pt" height="512.000000pt" viewBox="0 0 512.000000 512.000000"
 preserveAspectRatio="xMidYMid meet">

<g transform="translate(0.000000,512.000000) scale(0.100000,-0.100000)"
fill="#000000" stroke="none">
<path d="M1169 4946 c-113 -44 -287 -194 -492 -426 -206 -232 -410 -514 -484
-669 l-37 -75 12 -101 c92 -795 754 -1834 1642 -2576 627 -523 1303 -862 1860
-930 92 -12 97 -11 155 12 236 97 794 545 1005 808 93 116 125 181 125 251 -1
69 -37 151 -94 213 -84 91 -607 426 -886 567 -186 94 -285 130 -359 130 -116
0 -180 -46 -361 -257 -70 -81 -133 -149 -140 -151 -21 -5 -193 65 -313 129
-405 212 -720 527 -931 929 -63 122 -134 294 -129 315 2 6 69 69 149 138 213
183 258 246 259 360 0 151 -167 480 -496 973 -87 130 -173 249 -199 273 -86
79 -209 117 -286 87z m149 -428 c160 -226 339 -526 454 -763 32 -66 58 -123
58 -127 0 -3 -55 -53 -122 -110 -171 -143 -274 -244 -294 -286 -23 -49 -15
-113 37 -267 108 -325 350 -701 615 -955 287 -275 644 -488 978 -584 95 -28
140 -32 181 -16 40 15 125 101 267 267 71 84 132 153 136 153 4 0 61 -26 127
-58 238 -116 536 -293 760 -452 l115 -82 -81 -89 c-176 -193 -531 -490 -751
-628 l-67 -42 -68 12 c-882 147 -1977 959 -2648 1964 -284 426 -462 836 -524
1208 l-12 68 35 57 c122 201 433 574 631 758 49 46 91 83 92 84 1 0 37 -51 81
-112z"/>
<path d="M2655 4786 c-94 -41 -124 -168 -58 -247 36 -42 80 -59 155 -59 299 0
657 -111 925 -285 247 -160 463 -398 597 -656 129 -246 184 -452 204 -757 9
-131 17 -153 76 -196 39 -29 133 -29 172 0 73 54 84 105 64 315 -67 731 -500
1361 -1155 1684 -217 107 -435 171 -683 200 -155 18 -257 19 -297 1z"/>
<path d="M2655 3987 c-97 -45 -124 -172 -54 -252 37 -41 68 -52 184 -59 238
-15 445 -112 620 -290 170 -174 254 -363 274 -622 8 -112 19 -136 75 -178 39
-29 133 -29 172 0 75 55 87 123 59 315 -40 279 -160 517 -364 720 -231 232
-511 358 -826 374 -83 4 -118 2 -140 -8z"/>
</g>
</svg>
